<svg xmlns="http://www.w3.org/2000/svg" viewBox="0 0 532.64 73.39"><defs><style>.cls-1{fill:#302f2f;}.cls-2{fill:#dc7429;}</style></defs><g id="Layer_2" data-name="Layer 2"><g id="logo_2" data-name="logo 2"><path class="cls-1" d="M30.2,82H6.81v-69H30.68a35.8,35.8,0,0,1,17.68,4.13A27.92,27.92,0,0,1,59.73,28.92q4,7.72,4,18.48t-4,18.54a27.93,27.93,0,0,1-11.5,11.9Q40.72,82,30.2,82ZM19.32,71.16H29.6a24.67,24.67,0,0,0,12-2.65,16.67,16.67,0,0,0,7.25-7.92A31.49,31.49,0,0,0,51.31,47.4a31.33,31.33,0,0,0-2.43-13.17,16.72,16.72,0,0,0-7.16-7.85A24.11,24.11,0,0,0,30,23.77H19.32Z" transform="translate(-6.81 -9.61)"/><path class="cls-1" d="M97.62,83a25.08,25.08,0,0,1-13.14-3.33,22.63,22.63,0,0,1-8.62-9.34,30.63,30.63,0,0,1-3-14,30.8,30.8,0,0,1,3-14,22.53,22.53,0,0,1,8.62-9.37,25,25,0,0,1,13.14-3.34,25,25,0,0,1,13.15,3.34,22.44,22.44,0,0,1,8.61,9.37,30.67,30.67,0,0,1,3.05,14,30.5,30.5,0,0,1-3.05,14,22.55,22.55,0,0,1-8.61,9.34A25.12,25.12,0,0,1,97.62,83Zm.07-9.77a10.45,10.45,0,0,0,6.88-2.28,13.62,13.62,0,0,0,4.13-6.12,25.41,25.41,0,0,0,1.36-8.56,25.67,25.67,0,0,0-1.36-8.61,13.71,13.71,0,0,0-4.13-6.15,10.41,10.41,0,0,0-6.88-2.3,10.6,10.6,0,0,0-7,2.3,13.59,13.59,0,0,0-4.15,6.15,25.66,25.66,0,0,0-1.37,8.61,25.41,25.41,0,0,0,1.37,8.56,13.49,13.49,0,0,0,4.15,6.12A10.65,10.65,0,0,0,97.69,73.22Z" transform="translate(-6.81 -9.61)"/><path class="cls-1" d="M132.75,82V30.2h11.83v8.63h.54A12.94,12.94,0,0,1,150,31.91a13.35,13.35,0,0,1,7.91-2.45c.67,0,1.43,0,2.27.09a16.13,16.13,0,0,1,2.11.25V41a13.06,13.06,0,0,0-2.45-.48,24,24,0,0,0-3.22-.22,12.32,12.32,0,0,0-6,1.43,10.64,10.64,0,0,0-4.16,4A11.14,11.14,0,0,0,145,51.54V82Z" transform="translate(-6.81 -9.61)"/><path class="cls-1" d="M170.4,82V30.2h11.66V39h.61A13.91,13.91,0,0,1,188,32,15.69,15.69,0,0,1,197,29.53a15.14,15.14,0,0,1,8.89,2.54A13.51,13.51,0,0,1,211,39h.54a14.28,14.28,0,0,1,5.82-6.89A17.85,17.85,0,0,1,227,29.53a15.8,15.8,0,0,1,11.67,4.52q4.52,4.52,4.51,13.18V82H231V49.11c0-3.21-.86-5.56-2.56-7.06a9.21,9.21,0,0,0-6.27-2.24,8.82,8.82,0,0,0-6.9,2.75,10.25,10.25,0,0,0-2.48,7.13V82h-12V48.61a8.67,8.67,0,0,0-2.41-6.41,8.58,8.58,0,0,0-6.29-2.39,8.93,8.93,0,0,0-4.79,1.33,9.63,9.63,0,0,0-3.43,3.74,11.74,11.74,0,0,0-1.29,5.62V82Z" transform="translate(-6.81 -9.61)"/><path class="cls-2" d="M256.16,82v-69h44.23V23.43H268.66V42.17h28.69V52.65H268.66V82Z" transform="translate(-6.81 -9.61)"/><path class="cls-2" d="M317.34,22.85a7.06,7.06,0,0,1-5-2,6.21,6.21,0,0,1-2.09-4.69,6.13,6.13,0,0,1,2.09-4.66,7.4,7.4,0,0,1,10,0,6.33,6.33,0,0,1,0,9.36A7.08,7.08,0,0,1,317.34,22.85ZM311.21,82V30.2h12.2V82Z" transform="translate(-6.81 -9.61)"/><path class="cls-2" d="M348.15,51.64V82H336V30.2h11.66V39h.61a14.75,14.75,0,0,1,5.71-6.91,17.43,17.43,0,0,1,9.73-2.56A18.43,18.43,0,0,1,373,31.82a15.52,15.52,0,0,1,6.2,6.64A22.76,22.76,0,0,1,381.39,49V82h-12.2V50.9c0-3.46-.9-6.17-2.68-8.12a9.52,9.52,0,0,0-7.4-2.94,11.36,11.36,0,0,0-5.68,1.4,9.79,9.79,0,0,0-3.88,4A13.44,13.44,0,0,0,348.15,51.64Z" transform="translate(-6.81 -9.61)"/><path class="cls-2" d="M413,82.89a19.57,19.57,0,0,1-10.92-3.13,21.41,21.41,0,0,1-7.62-9.1,34.06,34.06,0,0,1-2.8-14.5,33.6,33.6,0,0,1,2.85-14.58,21,21,0,0,1,7.7-9,20,20,0,0,1,10.83-3,16.13,16.13,0,0,1,7.48,1.53,14.59,14.59,0,0,1,4.65,3.68,22.8,22.8,0,0,1,2.66,4h.51V12.94h12.24V82h-12V73.82h-.75a20.66,20.66,0,0,1-2.73,4,14.91,14.91,0,0,1-4.72,3.59A16.24,16.24,0,0,1,413,82.89Zm3.41-10a10.45,10.45,0,0,0,6.6-2.11,12.88,12.88,0,0,0,4.15-5.88,25.1,25.1,0,0,0,1.42-8.8,24.75,24.75,0,0,0-1.4-8.73,12.64,12.64,0,0,0-4.12-5.76,11.86,11.86,0,0,0-13.46.07,12.91,12.91,0,0,0-4.12,5.86,24.63,24.63,0,0,0-1.38,8.56,25,25,0,0,0,1.4,8.65,13.24,13.24,0,0,0,4.15,6A10.54,10.54,0,0,0,416.45,72.88Z" transform="translate(-6.81 -9.61)"/><path class="cls-2" d="M476.58,83a26.45,26.45,0,0,1-13.43-3.25,21.78,21.78,0,0,1-8.68-9.24,30.82,30.82,0,0,1-3-14.1,30.69,30.69,0,0,1,3.05-14A22.93,22.93,0,0,1,463,32.92a24.11,24.11,0,0,1,12.91-3.39A26.64,26.64,0,0,1,485,31.06a20.93,20.93,0,0,1,7.55,4.74,22.26,22.26,0,0,1,5.17,8.14,32.86,32.86,0,0,1,1.89,11.75v3.74H457.17V51.21h30.74A13.2,13.2,0,0,0,486.39,45a11.14,11.14,0,0,0-4.12-4.33A11.74,11.74,0,0,0,476.11,39a12,12,0,0,0-6.57,1.8,12.54,12.54,0,0,0-4.4,4.72,13.57,13.57,0,0,0-1.6,6.39v7.18a16.74,16.74,0,0,0,1.65,7.73,11.58,11.58,0,0,0,4.62,4.92,13.66,13.66,0,0,0,6.94,1.71,14.55,14.55,0,0,0,4.82-.76,10.59,10.59,0,0,0,3.75-2.24,9.51,9.51,0,0,0,2.39-3.68l11.39,1.28A17.66,17.66,0,0,1,495,76a20,20,0,0,1-7.71,5.2A29.27,29.27,0,0,1,476.58,83Z" transform="translate(-6.81 -9.61)"/><path class="cls-2" d="M509.92,82V30.2h11.84v8.63h.54a12.89,12.89,0,0,1,4.87-6.92,13.32,13.32,0,0,1,7.9-2.45c.68,0,1.43,0,2.28.09a16,16,0,0,1,2.1.25V41a12.92,12.92,0,0,0-2.44-.48,24.1,24.1,0,0,0-3.22-.22,12.3,12.3,0,0,0-6,1.43,10.6,10.6,0,0,0-4.17,4,11.13,11.13,0,0,0-1.51,5.83V82Z" transform="translate(-6.81 -9.61)"/></g></g></svg>