<svg xmlns="http://www.w3.org/2000/svg" xmlns:xlink="http://www.w3.org/1999/xlink" viewBox="0 0 617.52 108.11"><defs><style>.cls-1{fill:#302f2f;}.cls-2{fill:#dc7429;}</style></defs><g id="Layer_2" data-name="Layer 2"><g id="Layer_1-2" data-name="Layer 1"><image width="513" height="419" transform="scale(0.26)" xlink:href="../../../OneDrive%20-%20University%20of%20the%20Philippines/Documents/1ST%20SEMESTER%202021-2022/CMSC%20190/user%20interface%20design/dormfinder_logo.png"/><path class="cls-1" d="M166.89,90.27h-20.7V29.18h21.12A31.56,31.56,0,0,1,183,32.84,24.62,24.62,0,0,1,193,43.32a35.23,35.23,0,0,1,3.52,16.35A35.47,35.47,0,0,1,193,76.07,24.62,24.62,0,0,1,182.84,86.6,32.47,32.47,0,0,1,166.89,90.27Zm-9.63-9.57h9.09A21.91,21.91,0,0,0,177,78.36a14.87,14.87,0,0,0,6.42-7,28,28,0,0,0,2.14-11.68A27.75,27.75,0,0,0,183.42,48a14.82,14.82,0,0,0-6.34-7,21.33,21.33,0,0,0-10.4-2.31h-9.42Z"/><path class="cls-1" d="M226.55,91.17a22.17,22.17,0,0,1-11.63-3A19.77,19.77,0,0,1,207.3,80a27,27,0,0,1-2.71-12.41A27.24,27.24,0,0,1,207.3,55.1a19.79,19.79,0,0,1,7.62-8.29,24.4,24.4,0,0,1,23.26,0,19.79,19.79,0,0,1,7.62,8.29,27.23,27.23,0,0,1,2.7,12.44A27,27,0,0,1,245.8,80a19.77,19.77,0,0,1-7.62,8.26A22.17,22.17,0,0,1,226.55,91.17Zm.06-8.65a9.2,9.2,0,0,0,6.08-2,12,12,0,0,0,3.66-5.41,22.66,22.66,0,0,0,1.21-7.58,22.9,22.9,0,0,0-1.21-7.62,12.08,12.08,0,0,0-3.66-5.44,9.15,9.15,0,0,0-6.08-2,9.36,9.36,0,0,0-6.19,2,12.09,12.09,0,0,0-3.67,5.44,22.9,22.9,0,0,0-1.21,7.62,22.66,22.66,0,0,0,1.21,7.58,12,12,0,0,0,3.67,5.41A9.41,9.41,0,0,0,226.61,82.52Z"/><path class="cls-1" d="M257.63,90.27V44.45H268.1v7.64h.48A11.45,11.45,0,0,1,272.89,46a11.82,11.82,0,0,1,7-2.16c.6,0,1.27,0,2,.07a14.69,14.69,0,0,1,1.86.23V54a12,12,0,0,0-2.16-.43,21.94,21.94,0,0,0-2.85-.2,11,11,0,0,0-5.29,1.27,9.44,9.44,0,0,0-3.69,3.51,9.87,9.87,0,0,0-1.34,5.16V90.27Z"/><path class="cls-1" d="M291,90.27V44.45h10.32v7.79h.54a12.16,12.16,0,0,1,4.74-6.16,13.87,13.87,0,0,1,7.91-2.22,13.35,13.35,0,0,1,7.86,2.25,12,12,0,0,1,4.52,6.13h.47a12.57,12.57,0,0,1,5.15-6.1,15.79,15.79,0,0,1,8.6-2.28,14,14,0,0,1,10.32,4q4,4,4,11.67V90.27H344.55V61.19c0-2.84-.75-4.93-2.26-6.25a8.15,8.15,0,0,0-5.55-2,7.79,7.79,0,0,0-6.1,2.43,9.06,9.06,0,0,0-2.19,6.31V90.27H317.86V60.74a7.65,7.65,0,0,0-2.14-5.67A7.54,7.54,0,0,0,310.16,53a8,8,0,0,0-4.24,1.17,8.54,8.54,0,0,0-3,3.31,10.53,10.53,0,0,0-1.13,5V90.27Z"/><path class="cls-2" d="M366.84,90.27V29.18H406v9.28H377.9V55h25.39v9.28H377.9v26Z"/><path class="cls-2" d="M421,38a6.24,6.24,0,0,1-4.42-1.73,5.56,5.56,0,0,1,0-8.28,6.55,6.55,0,0,1,8.85,0,5.6,5.6,0,0,1,0,8.28A6.28,6.28,0,0,1,421,38Zm-5.43,52.32V44.45h10.79V90.27Z"/><path class="cls-2" d="M448.24,63.43V90.27h-10.8V44.45h10.32v7.79h.54a13.1,13.1,0,0,1,5.05-6.12A15.46,15.46,0,0,1,462,43.86a16.29,16.29,0,0,1,8.28,2,13.87,13.87,0,0,1,5.49,5.87,20.24,20.24,0,0,1,1.92,9.34V90.27h-10.8V62.77a10.27,10.27,0,0,0-2.37-7.19A8.42,8.42,0,0,0,457.93,53a10.07,10.07,0,0,0-5,1.23,8.69,8.69,0,0,0-3.43,3.57A11.81,11.81,0,0,0,448.24,63.43Z"/><path class="cls-2" d="M505.66,91.08A17.31,17.31,0,0,1,496,88.3a18.81,18.81,0,0,1-6.75-8,30.09,30.09,0,0,1-2.47-12.83,29.73,29.73,0,0,1,2.52-12.9,18.52,18.52,0,0,1,6.82-8,17.6,17.6,0,0,1,9.57-2.7,14.27,14.27,0,0,1,6.62,1.35,12.73,12.73,0,0,1,4.12,3.26A20.78,20.78,0,0,1,518.79,52h.44V29.18h10.83V90.27H519.44V83.05h-.65a18.18,18.18,0,0,1-2.42,3.54,13.27,13.27,0,0,1-4.18,3.18A14.46,14.46,0,0,1,505.66,91.08Zm3-8.86a9.25,9.25,0,0,0,5.85-1.87,11.46,11.46,0,0,0,3.67-5.2,22.25,22.25,0,0,0,1.25-7.79,21.7,21.7,0,0,0-1.24-7.72,11,11,0,0,0-3.64-5.1,10.51,10.51,0,0,0-11.91.06A11.32,11.32,0,0,0,499,59.79a21.62,21.62,0,0,0-1.22,7.57A22.08,22.08,0,0,0,499,75a11.73,11.73,0,0,0,3.67,5.28A9.31,9.31,0,0,0,508.67,82.22Z"/><path class="cls-2" d="M561.89,91.17A23.42,23.42,0,0,1,550,88.29a19.25,19.25,0,0,1-7.68-8.17,27.31,27.31,0,0,1-2.68-12.49,27.24,27.24,0,0,1,2.7-12.42,20.27,20.27,0,0,1,7.56-8.35,21.31,21.31,0,0,1,11.42-3,23.55,23.55,0,0,1,8,1.35,18.44,18.44,0,0,1,6.68,4.2,19.66,19.66,0,0,1,4.58,7.2A29,29,0,0,1,582.26,67v3.31H544.71V63h27.2a11.81,11.81,0,0,0-1.34-5.54,9.89,9.89,0,0,0-3.65-3.83,11.35,11.35,0,0,0-11.27.2A11.12,11.12,0,0,0,551.76,58a12.07,12.07,0,0,0-1.42,5.65v6.36a14.76,14.76,0,0,0,1.47,6.84,10.31,10.31,0,0,0,4.08,4.36A12.19,12.19,0,0,0,562,82.76a12.69,12.69,0,0,0,4.26-.68,9.12,9.12,0,0,0,3.32-2,8.26,8.26,0,0,0,2.11-3.25L581.82,78a15.73,15.73,0,0,1-3.63,7,17.6,17.6,0,0,1-6.81,4.59A25.76,25.76,0,0,1,561.89,91.17Z"/><path class="cls-2" d="M591.39,90.27V44.45h10.47v7.64h.48A11.45,11.45,0,0,1,606.65,46a11.82,11.82,0,0,1,7-2.16c.6,0,1.27,0,2,.07a14.69,14.69,0,0,1,1.86.23V54a12,12,0,0,0-2.16-.43,21.94,21.94,0,0,0-2.85-.2,11,11,0,0,0-5.29,1.27,9.44,9.44,0,0,0-3.69,3.51,9.87,9.87,0,0,0-1.34,5.16V90.27Z"/></g></g></svg>