<svg width="140" height="140" viewBox="0 0 140 140" fill="none" xmlns="http://www.w3.org/2000/svg">
<g filter="url(#filter0_dd_206_2280)">
<rect x="16" y="12" width="108" height="108" rx="54" fill="#EFE092"/>
</g>
<path d="M60.25 88.5H52.6C51.2474 88.5 49.9502 87.9627 48.9938 87.0062C48.0373 86.0498 47.5 84.7526 47.5 83.4V65.55C47.5 64.1974 48.0373 62.9002 48.9938 61.9438C49.9502 60.9873 51.2474 60.45 52.6 60.45H60.25M78.1 55.35V45.15C78.1 43.1211 77.294 41.1753 75.8594 39.7406C74.4247 38.306 72.4789 37.5 70.45 37.5L60.25 60.45V88.5H89.014C90.2439 88.5139 91.4375 88.0828 92.3747 87.2862C93.3119 86.4896 93.9296 85.3811 94.114 84.165L97.633 61.215C97.7439 60.4841 97.6946 59.7377 97.4885 59.0277C97.2824 58.3177 96.9244 57.6611 96.4392 57.1032C95.9541 56.5453 95.3535 56.0995 94.679 55.7968C94.0045 55.4941 93.2723 55.3416 92.533 55.35H78.1Z" stroke="#5C5C5C" stroke-width="5" stroke-linecap="round" stroke-linejoin="round"/>
<defs>
<filter id="filter0_dd_206_2280" x="0" y="0" width="140" height="140" filterUnits="userSpaceOnUse" color-interpolation-filters="sRGB">
<feFlood flood-opacity="0" result="BackgroundImageFix"/>
<feColorMatrix in="SourceAlpha" type="matrix" values="0 0 0 0 0 0 0 0 0 0 0 0 0 0 0 0 0 0 127 0" result="hardAlpha"/>
<feOffset dy="4"/>
<feGaussianBlur stdDeviation="8"/>
<feColorMatrix type="matrix" values="0 0 0 0 0.14902 0 0 0 0 0.196078 0 0 0 0 0.219608 0 0 0 0.08 0"/>
<feBlend mode="multiply" in2="BackgroundImageFix" result="effect1_dropShadow_206_2280"/>
<feColorMatrix in="SourceAlpha" type="matrix" values="0 0 0 0 0 0 0 0 0 0 0 0 0 0 0 0 0 0 127 0" result="hardAlpha"/>
<feOffset dy="4"/>
<feGaussianBlur stdDeviation="3"/>
<feColorMatrix type="matrix" values="0 0 0 0 0.14902 0 0 0 0 0.196078 0 0 0 0 0.219608 0 0 0 0.16 0"/>
<feBlend mode="multiply" in2="effect1_dropShadow_206_2280" result="effect2_dropShadow_206_2280"/>
<feBlend mode="normal" in="SourceGraphic" in2="effect2_dropShadow_206_2280" result="shape"/>
</filter>
</defs>
</svg>
